<svg width="10" height="11" viewBox="0 0 10 11" fill="none" xmlns="http://www.w3.org/2000/svg">
<path d="M9.76736 0.732637C9.61836 0.58368 9.4163 0.5 9.20561 0.5C8.99492 0.5 8.79286 0.58368 8.64386 0.732637L5 4.37649L1.35615 0.732637C1.20714 0.58368 1.00508 0.5 0.794391 0.5C0.583702 0.5 0.381639 0.58368 0.232637 0.732637C0.0836796 0.881639 0 1.0837 0 1.29439C0 1.50508 0.0836796 1.70714 0.232637 1.85615L3.87649 5.5L0.232637 9.14386C0.0836796 9.29286 0 9.49492 0 9.70561C0 9.9163 0.0836796 10.1184 0.232637 10.2674C0.381639 10.4163 0.583702 10.5 0.794391 10.5C1.00508 10.5 1.20714 10.4163 1.35615 10.2674L5 6.62351L8.64386 10.2674C8.79286 10.4163 8.99492 10.5 9.20561 10.5C9.4163 10.5 9.61836 10.4163 9.76736 10.2674C9.91632 10.1184 10 9.9163 10 9.70561C10 9.49492 9.91632 9.29286 9.76736 9.14386L6.12351 5.5L9.76736 1.85615C9.91632 1.70714 10 1.50508 10 1.29439C10 1.0837 9.91632 0.881639 9.76736 0.732637Z" fill="#777878"/>
</svg>
